<svg xmlns="http://www.w3.org/2000/svg" viewBox="0 0 347.06 347.06"><defs><style>.cls-1{fill:#a9a9a9;}</style></defs><g id="Calque_2" data-name="Calque 2"><g id="Calque_1-2" data-name="Calque 1"><path class="cls-1" d="M173.53,0A173.53,173.53,0,1,0,347.06,173.53,173.53,173.53,0,0,0,173.53,0Zm79.53,132.74c.07,1.76.11,3.53.11,5.31,0,54.22-41.27,116.75-116.74,116.75a116.17,116.17,0,0,1-62.9-18.44,83.3,83.3,0,0,0,9.79.57,82.38,82.38,0,0,0,51-17.56A41.07,41.07,0,0,1,96,190.87a41,41,0,0,0,18.53-.7,41.06,41.06,0,0,1-32.92-40.23c0-.18,0-.35,0-.52a40.83,40.83,0,0,0,18.58,5.13,41.09,41.09,0,0,1-12.7-54.78A116.47,116.47,0,0,0,172,142.64,41.06,41.06,0,0,1,242,105.22a82.16,82.16,0,0,0,26.05-10A41.15,41.15,0,0,1,250,118a81.8,81.8,0,0,0,23.57-6.46A83.35,83.35,0,0,1,253.06,132.74Z"/></g></g></svg>