<svg xmlns="http://www.w3.org/2000/svg" viewBox="0 0 160.54 160.54"><defs><style>.cls-1{fill:#a9a9a9;}</style></defs><g id="Calque_2" data-name="Calque 2"><g id="Calque_1-2" data-name="Calque 1"><path class="cls-1" d="M97.53,101.35c-.45.39-.88.81-1.36,1.16a15.12,15.12,0,0,1-3.91,2,34.9,34.9,0,0,1-10,1.88,41,41,0,0,1-11.32-1,23,23,0,0,1-4.77-1.71,12.67,12.67,0,0,1-3.15-2.18,2.11,2.11,0,0,0-2.33-.55,2.17,2.17,0,0,0-.85,3.54,12.46,12.46,0,0,0,2.27,1.89,22.62,22.62,0,0,0,6,2.74,44.32,44.32,0,0,0,12.79,1.72c.68,0,2-.11,3.34-.2a37.19,37.19,0,0,0,6.11-1,24.91,24.91,0,0,0,7.06-2.75,14.91,14.91,0,0,0,3-2.24,2.24,2.24,0,0,0,.61-2.33A2.1,2.1,0,0,0,97.53,101.35Z"/><path class="cls-1" d="M99,73.46A8.51,8.51,0,1,0,107.47,82,8.54,8.54,0,0,0,99,73.46Z"/><path class="cls-1" d="M69.76,81.87a8.5,8.5,0,1,0-8.47,8.51A8.52,8.52,0,0,0,69.76,81.87Z"/><path class="cls-1" d="M80.27,0a80.27,80.27,0,1,0,80.27,80.27A80.27,80.27,0,0,0,80.27,0ZM128,84.36c0,.1,0,.23,0,.35a23.3,23.3,0,0,1,.09,5.9,27,27,0,0,1-7,14.92,40.88,40.88,0,0,1-10.83,8.57,56.25,56.25,0,0,1-14.45,5.57,66.54,66.54,0,0,1-7.15,1.3,70.05,70.05,0,0,1-11.31.47,64.69,64.69,0,0,1-6.78-.62,60.36,60.36,0,0,1-16.59-4.74,46.3,46.3,0,0,1-10-6.06,33.93,33.93,0,0,1-8.51-9.7,25,25,0,0,1-3.12-8.85,22.53,22.53,0,0,1-.05-6.56c0-.18,0-.37,0-.56a11.92,11.92,0,0,1-6.75-8.6,11.46,11.46,0,0,1,1.77-9,11.62,11.62,0,0,1,8.7-5.29,11.92,11.92,0,0,1,9.64,3.23,53.13,53.13,0,0,1,15.51-7.45,66.22,66.22,0,0,1,17-2.74c.12-.52.23-1,.34-1.52L84.2,26.87c.07-.33.14-.65.2-1A2.08,2.08,0,0,1,87,24.2l6.61,1.39,9.68,2.06,3.53.75a8.52,8.52,0,0,1,6.08-4.58,8.21,8.21,0,0,1,5.56.81,8.58,8.58,0,0,1-4.13,16.19,8.33,8.33,0,0,1-5.83-2.46,8.62,8.62,0,0,1-2.58-5.77L88.22,28.8l-.07,0s0,0,0,0a2.22,2.22,0,0,0-.1.31q-2.68,12.54-5.35,25.08a.5.5,0,0,0,0,.16l1.49.11c1.48.13,3,.22,4.44.41a61.47,61.47,0,0,1,8.92,1.77,55,55,0,0,1,12.8,5.19c1.32.75,2.58,1.6,3.87,2.41l.46.3A12.09,12.09,0,1,1,128,84.36Z"/></g></g></svg>