<?xml version="1.0" encoding="utf-8"?>
<!-- Generator: Adobe Illustrator 25.2.0, SVG Export Plug-In . SVG Version: 6.00 Build 0)  -->
<svg version="1.1" id="Calque_1" xmlns="http://www.w3.org/2000/svg" xmlns:xlink="http://www.w3.org/1999/xlink" x="0px" y="0px"
	 viewBox="0 0 331.7 620" style="enable-background:new 0 0 331.7 620;" xml:space="preserve">
<style type="text/css">
	.st0{fill:#EEEEEE;}
</style>
<path id="Tracé_72" class="st0" d="M315.4,477.9c0.5-3.4-0.8-11.5-2.8-17.2c-1.4-3.6-3.2-7.1-5.3-10.3c-1.5-2.3-3.1-4.6-4.9-6.7
	c-4-4.8-8.5-9.3-13.3-13.3c-5.6-4.8-12.6-10-21.5-16.2c-3.2-2.2-5.8-4.4-5.8-4.8c0.3-1.5,0.7-2.9,1.3-4.4c0.1-0.2,0.1-0.4,0.2-0.6
	c1.4-5,1.5-10.4,0.2-15.4c-0.4-1.4-0.9-2.8-1.6-4.1c-2.1-4.2-5.6-8.7-11.8-15.2c-8.8-9.3-11.8-13.4-16-22.2
	c-7.5-15.2-12-31.8-13.3-48.7c-0.3-4.1-1.2-24.4-1.9-41.9c-0.6-14.1-1-26.2-0.8-26.4c0.1-0.1,4.1-1.1,8.9-2.4
	c7.9-1.8,15.6-4.6,22.8-8.3c3.3-1.6,6.3-3.8,8.8-6.5c3.7-4.4,4.4-6.4,4.4-13.6c0-6.3-0.1-6.8-1.8-9.9c-2.8-5.1-8.5-9.1-18.3-12.8
	c-3.2-1.2-3.9-1.8-5-4c-1.8-3.7-5.2-7.3-9.9-10.3c-2.3-1.4-4.1-2.9-4.1-3.3s3.9-4.5,8.7-9.2c11.3-11.1,16.3-18.7,20.6-30.7
	c7-19.2,7.6-37.8,1.8-55.4c-1.2-3.5-2.6-7-4.2-10.3c-1.4-3-3-5.9-4.8-8.8c-5.3-8.8-11.7-17-17.8-22.2c-4.2-3.6-8.8-6.7-13.6-9.4
	c-9.4-5.3-19.6-9.1-30.1-11.4c-5.5-1.2-24-2.1-28.6-1.4c-11.2,1.7-22.2,4.9-32.5,9.8c-11,5.3-20.4,12.2-27.3,20.5
	c-5.1,6.2-9.6,13-13.3,20.2c-0.2,0.3-0.3,0.6-0.5,0.9c-3.4,6.7-5.9,13.8-7.6,21.2c-3.5,16.5-0.2,38.6,8.2,55.4
	c3.8,7.6,8.2,13.2,17,21.8c4.7,4.5,8.4,8.6,8.4,9s-1.8,1.9-4.1,3.3c-4.7,3-8.1,6.6-9.9,10.3c-1.1,2.2-1.8,2.8-5,4
	c-9.7,3.7-15.5,7.8-18.3,12.9c-1.6,3-1.8,3.6-1.8,9.9c0,7.2,0.7,9.3,4.4,13.6c2.1,2.5,5.7,5,10.5,7.4c6.7,3.2,13.8,5.7,21.1,7.4
	c4.8,1.2,8.8,2.2,8.9,2.4c0.1,0.2-0.2,10.9-0.7,23.8c-0.7,18-1.7,40.3-2,44.4c-1.6,18.5-6.9,37-14.9,52.1
	c-3.9,7.2-6.1,10.1-14.7,19.1c-5.2,5.4-8.4,9.5-10.6,13.2c-1.1,1.8-1.9,3.8-2.6,5.8c-1.3,5.3-1.2,10.8,0.4,16c0.2,0.5,0.4,1,0.5,1.5
	c0.3,0.9,0.6,1.9,0.8,2.9c0,0.4-2.6,2.6-5.8,4.8c-3.1,2.2-6.3,4.4-9.3,6.7c-6.3,4.7-11.9,9.1-15.1,12c-6.5,5.8-12.1,12.4-16.6,19.8
	c-1.6,2.6-2.9,5.3-3.9,8.1c-2.1,5.7-3.4,13.8-2.8,17.2c0.3,2.1,0.1,2.6-3.3,6.8c-1.7,2.2-3.3,4.5-4.7,6.9c-2.7,4.4-4.8,9.1-6.4,14
	c-2,6.9-2,20.2,0,27.2c3,10.6,9.2,20.9,19.8,33c12.4,14.2,20,21.1,31.4,27.6c2.3,1.4,4.8,2.7,7.6,4.1c21.1,10.6,46.8,17.4,73.7,20.3
	c21.8,2.4,43.9,2.3,65.7-0.3c25.8-3.1,50.4-9.8,70.7-20c3.4-1.7,6.4-3.4,9.3-5.1c10.5-6.3,17.9-13.1,29.7-26.6
	c10.6-12.2,16.8-22.5,19.8-33c2-7,2-20.3,0-27.2c-1.4-4.3-3.2-8.4-5.4-12.3c-1.6-3-3.5-5.9-5.6-8.6
	C315.3,480.5,315.1,480,315.4,477.9z"/>
</svg>
